<svg width="21" height="18" viewBox="0 0 21 18" fill="none" xmlns="http://www.w3.org/2000/svg">
<path d="M10.2344 6.39386V9.92926V6.39386ZM10.2344 13.4646H10.2433H10.2344ZM8.72307 1.85091L1.23689 14.3485C1.08254 14.6157 1.00087 14.9188 1.00001 15.2275C0.999141 15.5361 1.07911 15.8396 1.23196 16.1078C1.38481 16.3759 1.60521 16.5994 1.87123 16.7559C2.13725 16.9124 2.43962 16.9966 2.74826 17H17.7206C18.0292 16.9966 18.3316 16.9124 18.5975 16.7559C18.8636 16.5994 19.084 16.3759 19.2368 16.1078C19.3897 15.8396 19.4696 15.5361 19.4688 15.2275C19.4679 14.9188 19.3863 14.6157 19.232 14.3485L11.7458 1.85091C11.5882 1.59116 11.3664 1.37639 11.1016 1.22734C10.8369 1.0783 10.5382 1 10.2344 1C9.93058 1 9.63193 1.0783 9.36722 1.22734C9.10242 1.37639 8.88057 1.59116 8.72307 1.85091Z" stroke="#FF0000" stroke-width="2" stroke-linecap="round" stroke-linejoin="round"/>
</svg>
