<svg width="10" height="18" viewBox="0 0 10 18" fill="none" xmlns="http://www.w3.org/2000/svg">
<path d="M2.4928 4.29486C2.38634 4.40133 2.32921 4.53635 2.31883 4.67657H2.31103L2.30065 11.4512C2.30065 12.2198 2.51877 12.7522 3.05108 13.2897C3.46914 13.7077 4.00146 13.931 4.54675 13.9155C5.11023 13.8999 5.65812 13.6402 6.13071 13.1676L6.1411 13.1572C6.63187 12.6639 6.89672 12.0095 6.89153 11.3188V3.44316C6.89153 1.44893 5.49713 0 3.57301 0C2.62004 0 1.7216 0.371322 1.04647 1.04905C0.371335 1.72418 -0.00258322 2.62262 1.3434e-05 3.57559V13.4403C1.3434e-05 15.9538 2.04618 18 4.55974 18C5.77497 18 6.92009 17.5248 7.78218 16.6627C8.64427 15.8006 9.11946 14.6555 9.11946 13.4403L9.10128 3.20946C9.10128 3.20946 9.10388 2.98615 8.91692 2.79919C8.67803 2.5603 8.29113 2.5603 8.05224 2.79919C7.93798 2.91344 7.88086 3.06145 7.87566 3.20946H7.87307L7.89124 13.4403C7.89124 14.3283 7.54329 15.1645 6.9149 15.7928C6.28392 16.4238 5.45039 16.7692 4.56233 16.7692C2.7265 16.7692 1.23083 15.2735 1.23083 13.4377V3.57559C1.23083 2.9498 1.47491 2.36295 1.91894 1.91893C2.36297 1.4749 2.94981 1.23081 3.5756 1.23081C4.1988 1.23081 4.72592 1.44374 5.09984 1.84882C5.46856 2.24611 5.66331 2.79919 5.66331 3.44316V11.3344C5.66331 11.6953 5.5231 12.0355 5.26862 12.29C4.78305 12.7755 4.22477 12.7236 3.92356 12.4224C3.66908 12.1679 3.52887 11.8278 3.52887 11.4668L3.54185 4.67398H3.53406C3.52367 4.53376 3.46655 4.39873 3.36008 4.29227C3.11859 4.05597 2.73169 4.05597 2.4928 4.29486Z" fill="currentColor"/>
</svg>
